<svg width="59" height="59" viewBox="0 0 59 59" fill="none" xmlns="http://www.w3.org/2000/svg">
<path d="M45.1803 18.1355C46.9367 15.0941 47.6166 12.0131 47.2015 8.97839C46.8265 6.237 45.7527 4.03989 44.01 2.44834C42.4848 1.05549 40.5273 0.222508 38.3488 0.0393872C36.2919 -0.133926 34.194 0.298433 32.4429 1.25604C31.2071 1.93175 30.2024 2.84413 29.5005 3.90916C28.7986 2.84401 27.794 1.93175 26.5581 1.25604C24.8072 0.298433 22.7101 -0.13381 20.6522 0.0393872C18.4738 0.222508 16.5162 1.05549 14.9912 2.44834C13.2484 4.03989 12.1747 6.237 11.7997 8.97839C11.4144 11.7949 11.9734 14.6566 13.4614 17.4841C14.6549 19.7522 16.4537 22.0115 18.8075 24.1995C19.1577 24.525 19.7052 24.5047 20.0306 24.1548C20.356 23.8047 20.336 23.2571 19.986 22.9317C15.0714 18.3636 12.894 13.748 13.5144 9.21286C14.107 4.88211 16.8293 2.09745 20.7972 1.76398C24.4099 1.45924 27.7949 3.34906 28.6747 6.15715C28.7865 6.51393 29.1267 6.76374 29.5005 6.76374C29.8745 6.76374 30.2146 6.51404 30.3264 6.15715C31.2063 3.34918 34.592 1.45935 38.2039 1.76398C42.1718 2.09745 44.8941 4.88199 45.4866 9.21286C45.8478 11.8532 45.2434 14.5588 43.6902 17.2547C42.4171 19.4644 40.5102 21.6734 38.0228 23.8201C34.4502 26.9031 30.6841 28.9741 29.5003 29.5921C28.493 29.0669 25.6167 27.491 22.5788 25.1295C22.2014 24.8363 21.6578 24.9041 21.3644 25.2817C21.0711 25.659 21.1393 26.2026 21.5166 26.496C25.4142 29.5258 28.9726 31.2689 29.1223 31.3416C29.3592 31.4567 29.6422 31.4567 29.8791 31.3416C30.0726 31.2476 34.6683 28.9939 39.1261 25.1541C41.7681 22.8784 43.8052 20.5168 45.1803 18.1355Z" fill="white"/>
<path d="M22.7603 14.4016C23.6863 14.4016 24.4397 13.6483 24.4397 12.7222C24.4397 11.7963 23.6864 11.043 22.7603 11.043C21.8344 11.043 21.0811 11.7962 21.0811 12.7222C21.0811 13.6483 21.8343 14.4016 22.7603 14.4016Z" fill="white"/>
<path d="M37.9192 12.7222C37.9192 11.7963 37.1659 11.043 36.2399 11.043C35.3139 11.043 34.5605 11.7962 34.5605 12.7222C34.5605 13.6482 35.3138 14.4016 36.2399 14.4016C37.1659 14.4016 37.9192 13.6483 37.9192 12.7222Z" fill="white"/>
<path d="M29.5 18.4191C31.1927 18.4191 32.6698 17.3344 33.1754 15.7199C33.3182 15.2639 33.0643 14.7783 32.6081 14.6355C32.1519 14.4926 31.6665 14.7466 31.5237 15.2027C31.2454 16.0912 30.4323 16.6882 29.5002 16.6882C28.5681 16.6882 27.7549 16.0912 27.4766 15.2027C27.3338 14.7467 26.8481 14.4929 26.3922 14.6355C25.9361 14.7783 25.6821 15.2639 25.8249 15.7199C26.3303 17.3344 27.8074 18.4191 29.5 18.4191Z" fill="white"/>
<path d="M58.5995 22.5537C58.1943 21.9087 57.5301 21.4735 56.7769 21.3595C55.6913 21.1952 54.6516 21.7189 54.1241 22.6371C53.847 22.4471 53.5299 22.3153 53.192 22.2553C52.0241 22.0466 50.8663 22.7424 50.5011 23.872L50.0955 25.126C49.8767 24.9804 49.6348 24.8686 49.3766 24.802C48.1505 24.486 46.896 25.1856 46.5203 26.395L46.2547 27.2505C45.9659 27.0549 45.6353 26.9211 45.2828 26.8633C44.087 26.6674 42.9464 27.3615 42.571 28.5138L39.8236 36.9507C38.8304 37.3939 36.2166 38.7518 34.3028 41.4706C31.9689 44.786 31.5518 48.8818 31.5352 49.0545C31.5326 49.082 31.5312 49.1096 31.5312 49.1374V58.1323C31.5312 58.6104 31.9186 58.9977 32.3967 58.9977H42.3667C42.8447 58.9977 43.2321 58.6104 43.2321 58.1323V51.934L49.6024 46.732C53.0436 43.922 54.4711 39.1667 55.7307 34.9712C55.8712 34.5029 56.5355 32.3355 56.5355 32.3355C56.6762 31.8787 56.42 31.3944 55.9632 31.2535C55.5066 31.113 55.0221 31.369 54.8814 31.8258C54.8814 31.8258 54.2148 34.0012 54.0729 34.4735C52.8849 38.431 51.5383 42.9165 48.5076 45.3912L41.8193 50.853C41.618 51.0174 41.5013 51.2635 41.5013 51.5234V57.2668H33.2621V49.184C33.308 48.7841 33.7638 45.2434 35.7181 42.4669C37.7539 39.5748 40.7933 38.4189 40.8221 38.4081C40.8521 38.3971 40.8814 38.3842 40.91 38.3699C40.9146 38.3676 40.9189 38.3649 40.9234 38.3624C40.9542 38.3464 40.9839 38.3283 41.0125 38.3087C41.0215 38.3026 41.0304 38.2963 41.0391 38.2899C41.0697 38.2671 41.0992 38.2431 41.1267 38.2165C41.1285 38.2147 41.1303 38.2131 41.1321 38.2114L46.0507 33.4071C46.3008 33.1481 46.567 32.9027 46.8247 32.6511C47.0125 32.4676 47.1815 32.2719 47.4496 32.2141C47.6675 32.1671 47.9009 32.2108 48.0865 32.3343C48.4765 32.594 48.562 33.1607 48.2713 33.5269L41.6892 41.8115C41.4173 42.1536 41.4432 42.6447 41.7495 42.9564C42.0559 43.2682 42.5466 43.3024 42.8932 43.0367L46.4573 40.3051C49.9508 37.6278 52.4638 33.9836 53.7244 29.7665L55.5486 23.6651C55.6915 23.2364 56.1448 22.9837 56.5847 23.0837C57.0781 23.1957 57.3789 23.7212 57.23 24.2043L55.9042 28.507C55.7633 28.9638 56.0196 29.4481 56.4763 29.5889C56.9329 29.73 57.4176 29.4736 57.5582 29.0168L58.884 24.714C59.1083 23.986 59.0046 23.1987 58.5995 22.5537ZM44.2169 29.0497C44.3428 28.6628 44.7794 28.462 45.1563 28.6142C45.491 28.7493 45.6697 29.1321 45.5635 29.4765L44.678 32.3283L42.4362 34.5182L44.2169 29.0497ZM47.6268 30.4627C47.4294 30.4627 47.2362 30.4877 47.0484 30.5311L48.1733 26.9082C48.2749 26.5817 48.6139 26.3924 48.9447 26.4782C49.1175 26.5227 49.2598 26.6332 49.3459 26.7895C49.4318 26.9455 49.449 27.1248 49.3944 27.2943L48.3367 30.5644C48.1184 30.5016 47.8911 30.4656 47.6579 30.4629C47.6474 30.4627 47.6371 30.4627 47.6268 30.4627ZM50.0695 33.7576C50.2795 33.0625 50.1847 32.2991 49.7972 31.6722L51.0404 27.8285C51.0405 27.8283 51.0406 27.828 51.0407 27.8277C51.0409 27.8275 51.0409 27.8272 51.041 27.8269L52.1479 24.4046C52.2485 24.0935 52.5674 23.9022 52.8891 23.9595C53.1416 24.0045 53.2762 24.1684 53.3339 24.262C53.3917 24.3558 53.4775 24.5498 53.404 24.7956C53.404 24.7957 53.4039 24.7958 53.4039 24.7959L52.0661 29.2707C51.5898 30.8639 50.9183 32.368 50.0695 33.7576Z" fill="white"/>
<path d="M24.6974 41.4707C22.7834 38.7517 20.1697 37.3938 19.1764 36.9507L16.429 28.5139C16.0538 27.3615 14.9131 26.6671 13.7172 26.8634C13.3648 26.9212 13.0342 27.0549 12.7454 27.2505L12.4796 26.3949C12.1041 25.1856 10.8494 24.4857 9.62332 24.8021C9.3652 24.8686 9.12335 24.9805 8.90457 25.1261L8.49898 23.872C8.13389 22.7425 6.97736 22.0469 5.80813 22.2553C5.47027 22.3153 5.1533 22.4471 4.87603 22.6372C4.34882 21.7189 3.30963 21.1951 2.22325 21.3596C1.47023 21.4735 0.805827 21.9087 0.400699 22.5537C-0.00454361 23.1987 -0.108162 23.986 0.116152 24.7139L2.85039 33.5873C2.99001 34.0404 3.12882 34.503 3.26936 34.9711C4.52894 39.1665 5.95641 43.9218 9.39762 46.7319C9.76802 47.034 10.3131 46.9794 10.6154 46.609C10.9176 46.2387 10.8627 45.6935 10.4925 45.3912C7.46176 42.9165 6.11518 38.431 4.92726 34.4735C4.78545 34.0011 4.64548 33.5346 4.50448 33.0775L1.77024 24.2041C1.6132 23.6943 1.9559 23.1505 2.48207 23.0711C2.90797 23.0057 3.31552 23.256 3.45168 23.665L5.27585 29.7664C6.53658 33.9835 9.0495 37.6277 12.5431 40.305L16.1072 43.0366C16.4543 43.3024 16.9447 43.2681 17.2509 42.9563C17.5572 42.6446 17.5831 42.1535 17.3112 41.8114L10.7292 33.5268C10.4722 33.2034 10.4961 32.7366 10.7847 32.4412C11.0979 32.1206 11.6263 32.1146 11.9469 32.4276L12.9479 33.4054C12.9487 33.4062 12.9495 33.4069 12.9503 33.4078L17.8685 38.2118C17.8699 38.2132 17.8713 38.2144 17.8725 38.2157C17.8998 38.2422 17.9293 38.2661 17.9598 38.2889C17.9696 38.2961 17.9795 38.303 17.9895 38.31C18.0163 38.3282 18.044 38.345 18.0726 38.3602C18.0788 38.3635 18.0847 38.3674 18.0911 38.3706C18.1189 38.3844 18.1473 38.3969 18.1762 38.4077C18.2067 38.4191 21.2461 39.575 23.282 42.4672C25.2373 45.2449 25.6925 48.788 25.738 49.1841V57.2671H17.4988V51.5236C17.4988 51.2638 17.382 51.0177 17.1808 50.8532L13.181 47.5869C12.8106 47.2847 12.2654 47.3398 11.9632 47.7099C11.661 48.0802 11.7159 48.6254 12.0861 48.9277L15.7679 51.9343V58.1326C15.7679 58.6107 16.1552 58.998 16.6333 58.998H26.6033C27.0813 58.998 27.4687 58.6107 27.4687 58.1326V49.1376C27.4687 49.1099 27.4673 49.0824 27.4647 49.0548C27.4482 48.8817 27.0311 44.786 24.6974 41.4707ZM13.5106 28.8972C13.5739 28.795 13.721 28.6167 13.9972 28.5714C14.3443 28.5144 14.6744 28.7158 14.7831 29.0497L16.5639 34.5181L14.3222 32.3283L13.4368 29.4771C13.3542 29.2104 13.4475 28.9993 13.5106 28.8972ZM6.93397 29.2706L5.59616 24.7958C5.59616 24.7957 5.59616 24.7956 5.59605 24.7955C5.52255 24.5497 5.60839 24.3557 5.6662 24.2619C5.7239 24.1682 5.85856 24.0044 6.11102 23.9594C6.43376 23.9028 6.75154 24.0937 6.85216 24.4046L7.95908 27.8268C7.9592 27.8272 7.9592 27.8274 7.95931 27.8277C7.95943 27.828 7.95954 27.8282 7.95966 27.8285L9.20285 31.6723C8.81538 32.2992 8.72053 33.0626 8.93065 33.7578C8.08174 32.3682 7.41041 30.864 6.93397 29.2706ZM11.3425 30.4629C11.1093 30.4657 10.8819 30.5017 10.6637 30.5644L9.60601 27.2943C9.55144 27.1248 9.56863 26.9457 9.65448 26.7896C9.74044 26.6334 9.88283 26.5227 10.0557 26.4782C10.3877 26.3928 10.7255 26.5818 10.8269 26.9082L11.9517 30.5305C11.7537 30.4848 11.5501 30.4598 11.3425 30.4629Z" fill="white"/>
</svg>
