<svg width="59" height="59" viewBox="0 0 59 59" fill="none" xmlns="http://www.w3.org/2000/svg">
<path d="M52.0541 27.3403C50.0464 26.3366 46.2823 26.325 46.123 26.325C45.6457 26.325 45.2588 26.7119 45.2588 27.1892C45.2588 27.6665 45.6457 28.0535 46.123 28.0535C47.0944 28.0536 49.9145 28.2032 51.2811 28.8864C51.4052 28.9485 51.537 28.9778 51.6669 28.9778C51.9839 28.9778 52.2891 28.8026 52.4405 28.4999C52.6541 28.0729 52.481 27.5538 52.0541 27.3403Z" fill="white"/>
<path d="M56.3625 39.6453L52.7931 38.6255C52.6391 38.5815 52.5314 38.4388 52.5314 38.2785V37.0871C52.8218 36.8859 53.0988 36.6607 53.3578 36.4094C54.6127 35.1916 55.3037 33.5582 55.3037 31.8098V30.1658L55.6489 29.4756C56.0276 28.718 56.2278 27.8697 56.2278 27.0228V22.569C56.2278 22.0917 55.8408 21.7047 55.3635 21.7047H47.0467C44.0225 21.7047 41.562 24.1652 41.562 27.1894V27.2409C41.562 27.9452 41.7286 28.6506 42.0435 29.2804L42.4861 30.1657V31.5773C42.4861 33.8144 43.5886 35.8217 45.2584 37.0296L45.2586 38.2783C45.2586 38.4708 45.2586 38.5506 44.545 38.7545L42.8033 39.2521L37.7652 37.4201C37.7833 37.1824 37.7031 36.9406 37.5296 36.7585L35.9197 35.067V32.2277C36.0899 32.0874 36.2577 31.9434 36.4203 31.791C38.4513 29.8874 39.6161 27.1997 39.6161 24.4171V22.1495C40.2294 20.815 40.5401 19.4028 40.5401 17.9484V8.70776C40.5401 8.23046 40.1532 7.84351 39.6759 7.84351H26.7386C22.1857 7.84351 18.4818 11.5476 18.4818 16.1004V17.9486C18.4818 19.403 18.7925 20.8152 19.4058 22.1497V24.1008C19.4058 27.3315 20.8423 30.2421 23.1022 32.161V35.0672L21.4922 36.7586C21.3188 36.9408 21.2386 37.1825 21.2567 37.4202L15.9392 39.3538C15.5539 39.4939 15.1958 39.6837 14.8708 39.9136L14.0358 39.4961C16.5214 38.4141 17.3088 36.8925 17.3466 36.8169C17.4683 36.5736 17.4683 36.2871 17.3466 36.0439C16.7235 34.7977 16.648 32.5137 16.5874 30.6785C16.5672 30.0675 16.5481 29.4903 16.5116 28.9763C16.2169 24.8309 13.0655 21.7047 9.18095 21.7047C5.2964 21.7047 2.14486 24.8308 1.85032 28.9763C1.81379 29.4904 1.79466 30.0676 1.77449 30.6787C1.71388 32.5138 1.63829 34.7976 1.01533 36.0438C0.893643 36.287 0.893643 36.5735 1.01533 36.8168C1.05313 36.8924 1.83891 38.4109 4.32947 39.4941L2.01015 40.6537C0.770227 41.2741 0 42.5204 0 43.9066V50.2916C0 50.7689 0.386957 51.1558 0.864258 51.1558C1.34156 51.1558 1.72852 50.7689 1.72852 50.2916V43.9066C1.72852 43.1792 2.13264 42.5252 2.78314 42.1999L5.67126 40.7559L6.67587 41.7107C7.37834 42.3782 8.27947 42.7118 9.18095 42.7118C10.0822 42.7118 10.9838 42.378 11.686 41.7107L12.6905 40.7561L13.6322 41.2269C13.1888 41.9364 12.9371 42.7684 12.9371 43.6399V50.2918C12.9371 50.7691 13.3241 51.1561 13.8014 51.1561C14.2787 51.1561 14.6656 50.7691 14.6656 50.2918V43.6399C14.6656 42.4535 15.4148 41.3839 16.5299 40.9783L22.1363 38.9397L24.4701 42.4407C24.7685 42.8882 25.2466 43.1753 25.7818 43.2283C25.8415 43.2342 25.9009 43.237 25.9601 43.237C26.4323 43.237 26.8846 43.0512 27.2227 42.7132L28.6466 41.2894V50.2919C28.6466 50.7692 29.0335 51.1562 29.5108 51.1562C29.9881 51.1562 30.3751 50.7692 30.3751 50.2919V41.2894L31.7989 42.7132C32.1369 43.0513 32.5892 43.2372 33.0616 43.2372C33.1207 43.2372 33.1801 43.2343 33.2397 43.2284C33.7751 43.1754 34.2532 42.8883 34.5515 42.4408L36.8855 38.94L42.4918 40.9786C43.6068 41.3841 44.356 42.4537 44.356 43.6401V50.292C44.356 50.7693 44.743 51.1563 45.2203 51.1563C45.6976 51.1563 46.0845 50.7693 46.0845 50.292V43.6401C46.0845 42.4385 45.6071 41.3115 44.8062 40.478L45.0198 40.417C45.2351 40.3555 45.529 40.2713 45.824 40.1266L48.0306 42.3333V50.292C48.0306 50.7693 48.4176 51.1563 48.8949 51.1563C49.3722 51.1563 49.7591 50.7693 49.7591 50.292V42.3333L51.9504 40.142C52.0669 40.2012 52.1893 40.2512 52.3181 40.288L55.8876 41.3078C56.7023 41.5406 57.2715 42.295 57.2715 43.1424V50.292C57.2715 50.7693 57.6584 51.1563 58.1357 51.1563C58.613 51.1563 59 50.7693 59 50.292V43.1424C59 41.5271 57.9154 40.0891 56.3625 39.6453ZM5.5445 38.1188C3.92788 37.5371 3.11697 36.7616 2.77081 36.3381C3.00681 35.7211 3.15984 35.0145 3.26344 34.2686C3.74005 35.4114 4.53828 36.3869 5.5445 37.083V38.1188ZM10.4955 40.4578C9.75839 41.1582 8.60363 41.1581 7.8667 40.4577L7.06295 39.6939C7.19858 39.4398 7.27313 39.1518 7.27313 38.85V37.9288C7.87604 38.1172 8.51697 38.2188 9.18118 38.2188C9.84459 38.2188 10.4852 38.1167 11.0891 37.9294L11.089 38.8498C11.089 39.1518 11.1634 39.44 11.2992 39.6942L10.4955 40.4578ZM9.18141 36.4903C6.60063 36.4903 4.50117 34.3907 4.50117 31.8101C4.50117 31.3328 4.11421 30.9458 3.63691 30.9458C3.58851 30.9458 3.54127 30.9508 3.49506 30.9585C3.49759 30.8842 3.50001 30.8097 3.50255 30.7361C3.52179 30.1418 3.54035 29.5805 3.57457 29.0991C3.68496 27.5462 4.3055 26.1152 5.32187 25.0695C6.34734 24.0145 7.71794 23.4334 9.18118 23.4334C10.6444 23.4334 12.0149 24.0145 13.0405 25.0695C14.0569 26.1152 14.6774 27.5462 14.7878 29.0991C14.8219 29.5804 14.8406 30.1416 14.8602 30.7357C14.8619 30.7868 14.8636 30.8385 14.8654 30.8899C13.925 29.4412 12.4729 28.3735 10.5965 27.7706C8.86302 27.2137 7.37212 27.2482 7.3092 27.2498C7.08288 27.2561 6.86808 27.3508 6.71102 27.5138L5.15167 29.131C4.82037 29.4746 4.83028 30.0217 5.17391 30.353C5.51754 30.6843 6.06467 30.6743 6.39597 30.3308L7.69351 28.9852C8.81094 29.0398 12.4059 29.4579 13.804 32.5366C13.4522 34.8053 11.5022 36.4903 9.18141 36.4903ZM12.8174 38.1217L12.8175 37.0909C13.8229 36.3987 14.6223 35.425 15.0993 34.2735C15.2029 35.0177 15.3558 35.7227 15.5913 36.3383C15.2471 36.7578 14.4324 37.5402 12.8174 38.1217ZM21.1343 24.1007V21.9564C21.1343 21.8263 21.1049 21.6978 21.0484 21.5806C20.4922 20.4289 20.2103 19.207 20.2103 17.9486V16.1005C20.2103 12.5007 23.1389 9.57214 26.7386 9.57214H38.8116V17.9488C38.8116 19.2071 38.5296 20.4291 37.9735 21.5807C37.9169 21.6979 37.8876 21.8264 37.8876 21.9565V24.4173C37.8876 26.7578 36.9467 28.9287 35.2382 30.5302C35.0249 30.73 34.8035 30.9173 34.5747 31.0919C34.5696 31.0954 34.5648 31.0992 34.5598 31.1028C32.9593 32.3179 30.999 32.9085 28.9517 32.7758C24.5681 32.492 21.1343 28.6815 21.1343 24.1007ZM26.0006 41.4908C25.9946 41.4968 25.9806 41.5109 25.9524 41.508C25.9243 41.5052 25.9132 41.4887 25.9085 41.4816L23.2206 37.4497L24.0856 36.5409L28.1632 39.3281L26.0006 41.4908ZM29.5109 38.1556L24.8307 34.9564V33.3431C26.0417 33.9978 27.3977 34.4072 28.8398 34.5006C29.0676 34.5153 29.2941 34.5226 29.5198 34.5226C31.1724 34.5226 32.7629 34.1275 34.1912 33.3777V34.9564L29.5109 38.1556ZM33.1134 41.4818C33.1087 41.4889 33.0976 41.5054 33.0695 41.5082C33.0413 41.5118 33.0274 41.4969 33.0213 41.491L30.8587 39.3284L34.9363 36.5411L35.8014 37.45L33.1134 41.4818ZM48.8949 40.7526L46.9336 38.7914C46.9678 38.636 46.9872 38.4658 46.987 38.2781L46.9869 37.9133C47.5312 38.0919 48.1048 38.198 48.6984 38.2157C48.765 38.2178 48.831 38.2187 48.8974 38.2187C49.5533 38.2187 50.1936 38.1196 50.8029 37.9305V38.2785C50.8029 38.4509 50.8246 38.6198 50.8654 38.7822L48.8949 40.7526ZM52.154 35.169C51.238 36.0579 50.028 36.5274 48.7504 36.488C46.2493 36.413 44.2146 34.21 44.2146 31.5775V29.9618C44.2146 29.8276 44.1834 29.6953 44.1234 29.5753L43.5895 28.5076C43.3939 28.1163 43.2906 27.6784 43.2906 27.241V27.1895C43.2906 25.1183 44.9756 23.4333 47.0467 23.4333H54.4993V27.0229C54.4993 27.603 54.3622 28.1839 54.1028 28.7028L53.6665 29.5753C53.6065 29.6954 53.5752 29.8276 53.5752 29.9618V31.8099C53.5752 33.0867 53.0705 34.2797 52.154 35.169Z" fill="white"/>
<path d="M54.4395 43.8828C53.9622 43.8828 53.5752 44.2698 53.5752 44.7471V50.2916C53.5752 50.7689 53.9622 51.1558 54.4395 51.1558C54.9168 51.1558 55.3037 50.7689 55.3037 50.2916V44.7471C55.3037 44.2699 54.9168 43.8828 54.4395 43.8828Z" fill="white"/>
<path d="M4.56055 45.0251C4.08325 45.0251 3.69629 45.4121 3.69629 45.8894V50.2915C3.69629 50.7688 4.08325 51.1557 4.56055 51.1557C5.03785 51.1557 5.4248 50.7688 5.4248 50.2915V45.8894C5.4248 45.4122 5.03785 45.0251 4.56055 45.0251Z" fill="white"/>
<path d="M36.5903 18.2616C33.3216 14.9929 26.4825 15.6178 23.6936 16.0382C22.8152 16.1706 22.1777 16.9139 22.1777 17.8057V19.7968C22.1777 20.2741 22.5647 20.661 23.042 20.661C23.5193 20.661 23.9063 20.2741 23.9063 19.7968V17.8056C23.9063 17.7762 23.9256 17.7511 23.9514 17.7472C25.0654 17.5793 27.2759 17.3203 29.5662 17.473C32.2613 17.6524 34.2134 18.3289 35.3682 19.4838C35.7057 19.8213 36.2529 19.8213 36.5903 19.4838C36.9279 19.1463 36.9279 18.599 36.5903 18.2616Z" fill="white"/>
<path d="M19.3457 45.731C18.8684 45.731 18.4814 46.1179 18.4814 46.5952V50.2916C18.4814 50.7689 18.8684 51.1558 19.3457 51.1558C19.823 51.1558 20.21 50.7689 20.21 50.2916V46.5952C20.21 46.118 19.823 45.731 19.3457 45.731Z" fill="white"/>
<path d="M39.6758 45.731C39.1985 45.731 38.8115 46.1179 38.8115 46.5952V50.2916C38.8115 50.7689 39.1985 51.1558 39.6758 51.1558C40.1531 51.1558 40.54 50.7689 40.54 50.2916V46.5952C40.54 46.118 40.1531 45.731 39.6758 45.731Z" fill="white"/>
</svg>
